<svg id="kity_svg_6" xmlns="http://www.w3.org/2000/svg" xmlns:xlink="http://www.w3.org/1999/xlink" version="1.1" width="476" height="141" contenteditable="true" class="loading-target" style="font-family: Arial, &quot;Microsoft Yahei&quot;,  &quot;Heiti SC&quot;;" viewBox="281 163 476 141"><defs id="kity_defs_7"><linearGradient id="kity_linearGradient_12" x1="0" y1="0" x2="0" y2="1"><stop id="kity_stop_13" offset="0" stop-color="rgb(255, 255, 255)"></stop><stop id="kity_stop_14" offset="1" stop-color="rgb(204, 204, 204)"></stop></linearGradient><marker id="kity_marker_2" orient="auto" refX="6" refY="0" viewBox="-7 -7 14 14" markerWidth="7" markerHeight="7" markerUnits="userSpaceOnUse"><path id="kity_path_3" fill="white" stroke="none" d="M6,0A6,6,0,1,1,-6,0A6,6,0,1,1,6,0"></path></marker></defs><g id="kity_g_8" transform="translate(0.5, 0.5)"><g id="minder_1" text-rendering="optimize-speed" transform="translate( 490 232 ) matrix( 1 0 0 1 0 0 )"><g id="minder_connect_group_1"><path id="kity_path_597" fill="none" stroke="white" stroke-width="3" marker-end="url(#kity_marker_2)" d="M19 0A102,34,0,0,1,121 -34" transform="translate( 0 0 )"></path><path id="kity_path_610" fill="none" stroke="white" stroke-width="3" marker-end="url(#kity_marker_2)" d="M19 0A102,34,0,0,0,121 34" transform="translate( 0 0 )"></path><path id="kity_path_625" fill="none" stroke="white" stroke-width="3" marker-end="url(#kity_marker_2)" d="M19 0A102,34,0,0,0,-83 -34" transform="translate( 0 0 )"></path><path id="kity_path_642" fill="none" stroke="white" stroke-width="3" marker-end="url(#kity_marker_2)" d="M19 0A102,34,0,0,1,-83 34" transform="translate( 0 0 )"></path></g><g id="kity_g_15"><path id="kity_path_16" fill="none" stroke="none" d="M0,0h0v0h0z"></path></g><g id="kity_g_17"><path id="kity_path_18" fill="none" stroke="none" d="M0,0h0v0h0z"></path><path id="kity_path_19" fill="none" stroke="none"></path></g><g id="minder_node_1" transform="matrix( 1 0 0 1 0 0 )"><path id="kity_path_293" fill="rgba(0, 0, 0, .25)" stroke="none" d="M16,-42h14a47,47,0,0,1,47,47v0a47,47,0,0,1,-47,47h-14a47,47,0,0,1,-47,-47v0a47,47,0,0,1,47,-47z"></path><path id="node_outline_1" fill="rgb(254, 219, 0)" stroke="rgb(254, 219, 0)" d="M12,-47h14a47,47,0,0,1,47,47v0a47,47,0,0,1,-47,47h-14a47,47,0,0,1,-47,-47v0a47,47,0,0,1,47,-47z" stroke-width="3"></path><g id="node_text_1" transform="translate( 0 -3.5999999999999996 )" fill="#430" style="cursor: default;"><text id="kity_text_23" text-rendering="inherit" dominant-baseline="text-before-edge" dy="0" font-size="24" y="-12">FFF</text></g><path id="_kity_selection" fill="rgb(27,171,255)" stroke="none" opacity="0.5" transform="translate( -0.5 -1.5 )" style="cursor: text; display: none;" d="M64,-7h2v18h-2v-18z"></path></g><g id="minder_node_176" transform="matrix( 1 0 0 1 143 -34 )"><path id="kity_path_604" fill="rgba(0, 0, 0, .25)" stroke="none" d="M-11,-9h94a5,5,0,0,1,5,5v18a5,5,0,0,1,-5,5h-94a5,5,0,0,1,-5,-5v-18a5,5,0,0,1,5,-5z"></path><g id="node_expander_53" transform="translate( -26 0 )" style="cursor: pointer;" display="none"><path id="kity_path_602" fill="white" stroke="gray" d="M6,0A6,6,0,1,1,-6,0A6,6,0,1,1,6,0"></path><path id="kity_path_603" fill="none" stroke="gray"></path></g><path id="node_outline_54" fill="#a4c5c0" stroke="#a4c5c0" d="M-15,-14h94a5,5,0,0,1,5,5v18a5,5,0,0,1,-5,5h-94a5,5,0,0,1,-5,-5v-18a5,5,0,0,1,5,-5z"></path><g id="node_text_54" transform="translate( 0 -2.4 )" fill="#333" style="cursor: default;"><text id="kity_text_599" text-rendering="inherit" dominant-baseline="text-before-edge" dy="0" font-size="16" y="-8">前端框架</text></g></g><g id="minder_node_181" transform="matrix( 1 0 0 1 143 34 )"><path id="kity_path_617" fill="rgba(0, 0, 0, .25)" stroke="none" d="M-11,-9h110a5,5,0,0,1,5,5v18a5,5,0,0,1,-5,5h-110a5,5,0,0,1,-5,-5v-18a5,5,0,0,1,5,-5z"></path><g id="node_expander_54" transform="translate( -26 0 )" style="cursor: pointer;" display="none"><path id="kity_path_615" fill="white" stroke="gray" d="M6,0A6,6,0,1,1,-6,0A6,6,0,1,1,6,0"></path><path id="kity_path_616" fill="none" stroke="gray"></path></g><path id="node_outline_55" fill="#a4c5c0" stroke="#a4c5c0" d="M-15,-14h110a5,5,0,0,1,5,5v18a5,5,0,0,1,-5,5h-110a5,5,0,0,1,-5,-5v-18a5,5,0,0,1,5,-5z"></path><g id="node_text_55" transform="translate( 0 -2.4 )" fill="#333" style="cursor: default;"><text id="kity_text_612" text-rendering="inherit" dominant-baseline="text-before-edge" dy="0" font-size="16" y="-8">自动化工具</text></g></g><g id="minder_node_197" transform="matrix( 1 0 0 1 -169 34 )"><path id="kity_path_649" fill="rgba(0, 0, 0, .25)" stroke="none" d="M-11,-9h94a5,5,0,0,1,5,5v18a5,5,0,0,1,-5,5h-94a5,5,0,0,1,-5,-5v-18a5,5,0,0,1,5,-5z"></path><g id="node_expander_56" transform="translate( 90 0 )" style="cursor: pointer;" display="none"><path id="kity_path_647" fill="white" stroke="gray" d="M6,0A6,6,0,1,1,-6,0A6,6,0,1,1,6,0"></path><path id="kity_path_648" fill="none" stroke="gray"></path></g><path id="node_outline_57" fill="#a4c5c0" stroke="#a4c5c0" d="M-15,-14h94a5,5,0,0,1,5,5v18a5,5,0,0,1,-5,5h-94a5,5,0,0,1,-5,-5v-18a5,5,0,0,1,5,-5z"></path><g id="node_text_57" transform="translate( 0 -2.4 )" fill="#333" style="cursor: default;"><text id="kity_text_644" text-rendering="inherit" dominant-baseline="text-before-edge" dy="0" font-size="16" y="-8">辅助工具</text></g></g><g id="minder_node_188" transform="matrix( 1 0 0 1 -169 -34 )"><path id="kity_path_632" fill="rgba(0, 0, 0, .25)" stroke="none" d="M-11,-9h94a5,5,0,0,1,5,5v18a5,5,0,0,1,-5,5h-94a5,5,0,0,1,-5,-5v-18a5,5,0,0,1,5,-5z"></path><g id="node_expander_55" transform="translate( 90 0 )" style="cursor: pointer;" display="none"><path id="kity_path_630" fill="white" stroke="gray" d="M6,0A6,6,0,1,1,-6,0A6,6,0,1,1,6,0"></path><path id="kity_path_631" fill="none" stroke="gray"></path></g><path id="node_outline_56" fill="#a4c5c0" stroke="#a4c5c0" d="M-15,-14h94a5,5,0,0,1,5,5v18a5,5,0,0,1,-5,5h-94a5,5,0,0,1,-5,-5v-18a5,5,0,0,1,5,-5z"></path><g id="node_text_56" transform="translate( 0 -2.4 )" fill="#333" style="cursor: default;"><text id="kity_text_627" text-rendering="inherit" dominant-baseline="text-before-edge" dy="0" font-size="16" y="-8">开发规范</text></g></g></g></g></svg>