<svg xmlns="http://www.w3.org/2000/svg" xmlns:xlink="http://www.w3.org/1999/xlink" preserveAspectRatio="xMidYMid" width="48" height="48" viewBox="0 0 48 48">
  <defs>
    <style>

      .cls-3 {
        fill: #2e2b1d;
      }

      .cls-4 {
        fill: #ffffff;
      }
    </style>
  </defs>
  <g id="icon">
    <rect id="rect-1" class="cls-3" width="48" height="48"/>
    <path d="M30.510,24.596 C30.510,24.596 29.096,26.010 29.096,26.010 C29.096,26.010 29.000,25.914 29.000,25.914 C29.000,25.914 19.904,35.010 19.904,35.010 C19.904,35.010 18.490,33.596 18.490,33.596 C18.490,33.596 27.586,24.500 27.586,24.500 C27.586,24.500 18.490,15.404 18.490,15.404 C18.490,15.404 19.904,13.990 19.904,13.990 C19.904,13.990 29.000,23.086 29.000,23.086 C29.000,23.086 29.096,22.989 29.096,22.989 C29.096,22.989 30.510,24.404 30.510,24.404 C30.510,24.404 30.414,24.500 30.414,24.500 C30.414,24.500 30.510,24.596 30.510,24.596 Z" id="path-1" class="cls-4" fill-rule="evenodd"/>
  </g>
</svg>
