<svg xmlns="http://www.w3.org/2000/svg" xmlns:xlink="http://www.w3.org/1999/xlink" preserveAspectRatio="xMidYMid" width="31" height="32" viewBox="0 0 31 32">
  <defs>
    <style>

      .cls-3 {
        fill: #e7cd3c;
      }

      .cls-4 {
        fill: #e7cd3c;
        opacity: 0.4;
      }
    </style>
  </defs>
  <g id="icon">
    <path d="M30.553,31.555 C30.106,32.000 29.382,32.000 28.935,31.555 C28.935,31.555 20.626,22.280 20.626,22.280 C21.234,21.815 21.807,21.309 22.335,20.759 C22.335,20.759 30.553,29.944 30.553,29.944 C31.000,30.389 31.000,31.110 30.553,31.555 ZM12.589,25.065 C5.637,25.065 0.000,19.454 0.000,12.533 C0.000,5.611 5.637,-0.000 12.589,-0.000 C19.542,-0.000 25.178,5.611 25.178,12.533 C25.178,19.454 19.542,25.065 12.589,25.065 ZM12.589,2.279 C6.901,2.279 2.289,6.870 2.289,12.533 C2.289,18.196 6.901,22.787 12.589,22.787 C18.278,22.787 22.889,18.196 22.889,12.533 C22.889,6.870 18.278,2.279 12.589,2.279 Z" id="path-1" class="cls-3" fill-rule="evenodd"/>
    <circle id="circle-1" class="cls-4" cx="8" cy="10" r="3"/>
  </g>
</svg>
