<?xml version="1.0" encoding="utf-8"?>
<!-- Generator: Adobe Illustrator 17.0.0, SVG Export Plug-In . SVG Version: 6.00 Build 0)  -->
<!DOCTYPE svg PUBLIC "-//W3C//DTD SVG 1.1//EN" "http://www.w3.org/Graphics/SVG/1.1/DTD/svg11.dtd">
<svg version="1.1" id="head_1_" xmlns="http://www.w3.org/2000/svg" xmlns:xlink="http://www.w3.org/1999/xlink" x="0px" y="0px"
	 width="1800px" height="610px" viewBox="0 0 1800 610" enable-background="new 0 0 1800 610" xml:space="preserve">
<g id="形状_40">
	<g>
		<polygon fill-rule="evenodd" clip-rule="evenodd" fill="#2E2B1D" points="690,151 702,177 703,147 714,123 		"/>
	</g>
</g>
<g id="形状_41">
	<g>
		<polygon fill-rule="evenodd" clip-rule="evenodd" fill="#2E2B1D" points="1018.865,345.845 1009.511,316.17 1009.963,338.984 
			994.274,350.541 		"/>
	</g>
</g>
<g id="_x3C_文字_x3E_">
	<rect fill="none" width="1800" height="564"/>
</g>
<g id="INNOVATION_ENGINE">
	<text transform="matrix(1 0 0 1 806.8496 413.1807)" fill="#2E2B1D" font-family="'MyriadPro-Regular'" font-size="24">INNOVATION ENGINE</text>
</g>
<g id="形状_30">
	<g>
		<path fill-rule="evenodd" clip-rule="evenodd" fill="#2E2B1D" d="M893.14,488.646l5.763,8.331l17.986-25.994l-11.544,0.018
			L893.14,488.646z M851.15,525.86h10.313v-48.628l-10.313,10.409V525.86z M860.818,475.464l-9.668-4.084l-0.613-0.259l-0.234,0.236
			l-0.847,0.855l-17.527,17.691l7.292,7.361l10.235-10.331l0.847-0.855l0.847-0.855L860.818,475.464z M830.13,490.507l-0.599-0.604
			l-17.527-17.691v14.72l10.235,10.331l0.354,0.357h14.585l-6.448-6.508L830.13,490.507z M799.997,475.736v50.124h10.313v-54.48
			l-2.246,0.949L799.997,475.736z M885.756,497.621h11.525l-5.174-7.48l-0.517-0.747l-0.517-0.747l-12.204-17.644l-11.544-0.018
			l17.985,25.994L885.756,497.621z M867.325,525.968l11.544-0.018l12.204-17.644l-5.763-8.332L867.325,525.968z M932.369,525.968
			h32.385L969,515.559h-36.631V525.968z M964.753,470.984h-32.88l-10.313,10.409H969L964.753,470.984z M886.933,499.331l5.174,7.48
			l0.517,0.747l0.517,0.747l12.204,17.644l11.544,0.018l-18.431-26.637H886.933z M920.362,514.351l10.313,10.41v-41.659h-10.313
			V514.351z"/>
	</g>
</g>
<g id="形状_31">
	<g>
		<path fill-rule="evenodd" clip-rule="evenodd" fill="#2E2B1D" d="M1361,454l341,129l18.451-2.605L1361,454z M1542.998,0
			L1412,44.647L1553.854,0H1542.998z"/>
	</g>
</g>
<g id="形状_31_拷贝_2">
	<g>
		<polygon fill-rule="evenodd" clip-rule="evenodd" fill="#2E2B1D" points="1800,112.512 1613.488,150.292 1800,117.064 		"/>
	</g>
</g>
<g id="形状_9">
	<g>
		<polygon fill-rule="evenodd" clip-rule="evenodd" fill="#2E2B1D" points="785.008,81.398 766.67,83.117 720,147.728 716,202 
			778.843,103.146 835,133 858,114 		"/>
	</g>
</g>
<g id="形状_10">
	<g>
		<polygon fill-rule="evenodd" clip-rule="evenodd" fill="#2E2B1D" points="786,161 774,176 816.802,189.854 830.513,138.514 
			781.567,112.505 741,173 761.131,264.787 814.257,195.922 791,190 772.215,216.582 766,173 788.739,140.145 806.636,148.757 
			803,167 		"/>
	</g>
</g>
<g id="形状_11">
	<g>
		<polygon fill-rule="evenodd" clip-rule="evenodd" fill="#2E2B1D" points="833.775,141.116 820.064,189.388 825.333,226.563 
			844.403,217.32 848.217,170.019 858.024,118.913 		"/>
	</g>
</g>
<g id="形状_12">
	<g>
		<polygon fill-rule="evenodd" clip-rule="evenodd" fill="#2E2B1D" points="906.963,81.398 865.555,92.272 851.934,168.388 848,231 
			873,221 872,175 		"/>
	</g>
</g>
<g id="形状_13">
	<g>
		<polygon fill-rule="evenodd" clip-rule="evenodd" fill="#2E2B1D" points="779,417 828.423,355.417 822.975,310.835 
			821.34,299.961 798.457,315.728 819.526,286.583 818.071,241.786 814.981,215.417 766,275 770.215,304.369 802.36,260.874 
			800.457,278.408 776.118,311.223 785.926,349.981 808.809,328.233 810.988,341.282 786,365 		"/>
	</g>
</g>
<g id="形状_15">
	<g>
		<polygon fill-rule="evenodd" clip-rule="evenodd" fill="#2E2B1D" points="880,172 880,192 899,188 916,183 918,161 		"/>
	</g>
</g>
<g id="形状_15_拷贝">
	<g>
		<polygon fill-rule="evenodd" clip-rule="evenodd" fill="#2E2B1D" points="931,160 924,184 943,190 961,197 972,171 		"/>
	</g>
</g>
<g id="形状_21">
	<g>
		<polygon fill-rule="evenodd" clip-rule="evenodd" fill="#2E2B1D" points="1040,113 1005,104 972,185 963.676,202.035 957,200 
			935,190 927,221 977,225 989,194 1014,128 1017,129 982,228 1008,264 1003,227 		"/>
	</g>
</g>
<g id="形状_39">
	<g>
		<polygon fill-rule="evenodd" clip-rule="evenodd" fill="#2E2B1D" points="880,197 879,219 900,213 905,190 		"/>
	</g>
</g>
<g id="形状_16">
	<g>
		<polygon fill-rule="evenodd" clip-rule="evenodd" fill="#2E2B1D" points="946,82 937,97 948,100 963,100 970,85 		"/>
	</g>
</g>
<g id="形状_17">
	<g>
		<polygon fill-rule="evenodd" clip-rule="evenodd" fill="#2E2B1D" points="944.122,102.812 912.052,95.078 903.059,118.913 
			938.446,124.807 992.337,124.087 999.964,103.427 		"/>
	</g>
</g>
<g id="形状_18">
	<g>
		<polygon fill-rule="evenodd" clip-rule="evenodd" fill="#2E2B1D" points="912,124 905,150 928.789,143.423 933,128 		"/>
	</g>
</g>
<g id="形状_19">
	<g>
		<polygon fill-rule="evenodd" clip-rule="evenodd" fill="#2E2B1D" points="949,129 944,144 966,149 974,127 		"/>
	</g>
</g>
<g id="形状_20">
	<g>
		<polygon fill-rule="evenodd" clip-rule="evenodd" fill="#2E2B1D" points="937,135 893,144 882,168 917,158 902.521,217.32 
			851,238 852,257 919.956,232 939,160 974,167 984,143 		"/>
	</g>
</g>
<g id="形状_25">
	<g>
		<path fill-rule="evenodd" clip-rule="evenodd" fill="#2E2B1D" d="M1082.046,49.521c0,0,2.85-28.589-21.953-30.656
			c0,0-18.374,0.992-16.099,20.438c0,0-20.577-9.988-24.88,11.679c0,0-2.114,19.632,17.563,21.897c0,0,7.809-0.041,14.635-5.839
			c0,0-23.901,8.123-26.344-8.759c0,0-3.801-15.791,14.032-17.28c0,0,7.543,5.069,7.921,8.521c0,0-0.777,8.496,4.391,10.219
			c0,0-4.136-13.009,8.781-14.598c0,0-6.285-5.961-10.245,1.46c0,0-9.047-8.468,2.927-20.438c0,0,17.946-13.169,27.807,16.058v4.38
			c0,0-5.127-6.84-13.172-5.839c0,0,11.454,4.72,11.708,11.679c0,0,2.494,9.29-2.927,11.679c0,0,4.176,1.103,7.318-7.299
			c0,0,7.49,7.381-4.391,20.438c0,0,10.288-2.185,10.245-17.518C1089.364,59.74,1086.907,50.173,1082.046,49.521z"/>
	</g>
</g>
<g id="形状_26">
	<g>
		<path fill-rule="evenodd" clip-rule="evenodd" fill="#2E2B1D" d="M1068.875,61.199c17.496,22.657-7.318,29.196-7.318,29.196
			c-14.825,0.016-23.417-16.058-23.417-16.058c13.233,31.662,33.661,16.058,33.661,16.058
			C1087.38,81.222,1068.875,61.199,1068.875,61.199z"/>
	</g>
</g>
<g id="形状_27">
	<g>
		<path fill-rule="evenodd" clip-rule="evenodd" d="M1023,78c-10.674,6.913-6,26-6,26C1016.69,94.35,1023,78,1023,78z"/>
	</g>
</g>
<g id="形状_28">
	<g>
		<path fill-rule="evenodd" clip-rule="evenodd" d="M1023,106c0,0,0.886-12.132,3-17C1026,89,1020.028,96.254,1023,106z"/>
	</g>
</g>
<g id="形状_29">
	<g>
		<path fill-rule="evenodd" clip-rule="evenodd" d="M1032.265,104.205c0,0,0.105-7.06,9.074-14.41
			C1041.339,89.795,1030.388,94.159,1032.265,104.205z"/>
	</g>
</g>
<g id="形状_22">
	<g>
		<polygon fill-rule="evenodd" clip-rule="evenodd" fill="#2E2B1D" points="925,251 925,238 904,245 905.582,253.893 892,258 
			892,249 872,255 874,263 856,264 859,285 876,280 879,297 897,290 895,278 906,275 908,288 925,282 925.287,269.387 
			936.032,266.602 942.603,245.996 		"/>
	</g>
</g>
<g id="形状_23">
	<g>
		<polygon fill-rule="evenodd" clip-rule="evenodd" fill="#2E2B1D" points="992,256 982,240 961.364,246.68 967,230 952,229 
			945.833,252.116 938.481,273.32 967.716,261.99 958.64,277.388 929.66,274.214 929.032,289.981 947.563,293.699 933,303 941,320 
			958,311 962,315 982,306 969,292 		"/>
	</g>
</g>
<g id="形状_24">
	<g>
		<polygon fill-rule="evenodd" clip-rule="evenodd" fill="#2E2B1D" points="925,291 920,288 878,302 875,293 860,298 866,323 
			908,308 911,315 896,321 894,316 875,324 878,334 882,344 939,322 		"/>
	</g>
</g>
<g id="形状_14">
	<g>
		<polygon fill-rule="evenodd" clip-rule="evenodd" fill="#2E2B1D" points="845.582,269.058 843,227 823,237 825.154,284.146 
			835,365 872,380 		"/>
	</g>
</g>
<g id="Engineering">
	<g>
		<path fill-rule="evenodd" clip-rule="evenodd" fill="#2E2B1D" d="M995.549,317.485l-13.406-2.477
			c-0.256-1.078-0.551-4.145-0.879-5.2l-15.879,7.701c0.962,3.219,1.454,6.64,1.384,10.182
			c-0.361,18.261-15.371,32.773-33.526,32.414c-13.46-0.266-24.863-8.636-29.716-20.386l-14.531,5.217
			c0.772,1.918,1.653,3.798,2.669,5.622l-8.179,11.032c-0.736,0.996-0.65,2.379,0.203,3.273l10.477,10.962
			c0.845,0.883,2.205,1.032,3.221,0.349l11.38-7.675c3.854,2.394,7.989,4.222,12.331,5.454l1.979,13.6
			c0.178,1.227,1.212,2.143,2.444,2.168l15.121,0.299c1.223,0.024,2.287-0.836,2.522-2.043l2.658-13.506
			c4.425-1.059,8.669-2.736,12.655-5l11.049,8.126c0.988,0.73,2.354,0.636,3.235-0.218l10.901-10.539
			c0.891-0.861,1.029-2.246,0.328-3.268l-7.751-11.302c2.392-3.905,4.213-8.086,5.429-12.468l13.509-2.108
			c1.21-0.189,2.109-1.226,2.134-2.456l0.301-15.21C997.639,318.786,996.764,317.71,995.549,317.485z"/>
	</g>
</g>
<g id="椭圆_1">
	<g>
		<path fill-rule="evenodd" clip-rule="evenodd" fill="#2E2B1D" d="M953.795,318.614l-14.397,7.433l-6.008,2.983
			c0.947,1.095,1.514,2.529,1.483,4.094c-0.066,3.348-2.818,6.008-6.146,5.943c-2.874-0.057-5.234-2.13-5.783-4.85l-7.291,3.62
			c3.546,6.571,10.393,11.1,18.357,11.257c11.801,0.233,21.557-9.199,21.792-21.069
			C955.884,323.866,955.764,321.945,953.795,318.614z"/>
	</g>
</g>
<g id="形状_32">
	<g>
		<polygon fill-rule="evenodd" clip-rule="evenodd" fill="#2E2B1D" points="1369,469 1576,606 1643,578 		"/>
	</g>
</g>
<g id="形状_31_拷贝">
	<g>
		<polygon fill-rule="evenodd" clip-rule="evenodd" fill="#2E2B1D" points="496.031,41.758 373.561,0 363.411,0 		"/>
	</g>
</g>
<g id="形状_37">
	<g>
		<path fill-rule="evenodd" clip-rule="evenodd" fill="#2E2B1D" d="M819,34c0,0-1.678-2.473-4.541-6.694
			c-4.167-6.144-10.847-15.992-18.52-27.306h-15.298L819,34z"/>
	</g>
</g>
<g id="形状_38">
	<g>
		<polygon fill-rule="evenodd" clip-rule="evenodd" fill="#2E2B1D" points="823,49 769.18,0 754.569,0 		"/>
	</g>
</g>
<g id="形状_32_拷贝">
	<g>
		<polygon fill-rule="evenodd" clip-rule="evenodd" fill="#2E2B1D" points="265.173,575.006 332.132,603 539.005,466.027 		"/>
	</g>
</g>
<g id="形状_33">
	<g>
		<polygon fill-rule="evenodd" clip-rule="evenodd" fill="#2E2B1D" points="1162,504 1200,570 1225,587 		"/>
	</g>
</g>
<g id="形状_34">
	<g>
		<polygon fill-rule="evenodd" clip-rule="evenodd" fill="#2E2B1D" points="1167,524 1172,586 1196,576 		"/>
	</g>
</g>
<g id="形状_35">
	<g>
		<path fill-rule="evenodd" clip-rule="evenodd" fill="#2E2B1D" d="M1386,581l2-9l-166-152L1386,581z M1426.755,514.112
			l104.505,81.017l0.903-9.175L1426.755,514.112z"/>
	</g>
</g>
<g id="形状_36">
	<g>
		<polygon fill-rule="evenodd" clip-rule="evenodd" fill="#2E2B1D" points="1263,471 1344,575 1360,572 		"/>
	</g>
</g>
<g id="形状_35_拷贝">
	<g>
		<polygon fill-rule="evenodd" clip-rule="evenodd" fill="#2E2B1D" points="529.087,562.888 531.086,571.882 695,411 		"/>
	</g>
</g>
<g id="形状_35_拷贝_2">
	<g>
		<polygon fill-rule="evenodd" clip-rule="evenodd" fill="#2E2B1D" points="228.177,567.056 226.613,576.135 439.324,489.505 		"/>
	</g>
</g>
<g id="形状_32_拷贝_2">
	<g>
		<polygon fill-rule="evenodd" clip-rule="evenodd" fill="#2E2B1D" points="0,400.009 529.087,297.849 0,358.716 		"/>
	</g>
</g>
<g id="形状_35_拷贝_3">
	<g>
		<polygon fill-rule="evenodd" clip-rule="evenodd" fill="#2E2B1D" points="0,346.228 282.842,311.627 0,337.3 		"/>
	</g>
</g>
<g id="形状_32_拷贝_3">
	<g>
		<polygon fill-rule="evenodd" clip-rule="evenodd" fill="#2E2B1D" points="1800,312.32 1344,306 1800,350.69 		"/>
	</g>
</g>
<g id="形状_35_拷贝_4">
	<g>
		<polygon fill-rule="evenodd" clip-rule="evenodd" fill="#2E2B1D" points="1800,295.508 1800,282.793 1506.171,292.406 		"/>
	</g>
</g>
<g id="形状_35_拷贝_5">
	<g>
		<polygon fill-rule="evenodd" clip-rule="evenodd" fill="#2E2B1D" points="1800,142.012 1800,131.106 1553.077,172.147 		"/>
	</g>
</g>
<g id="形状_31_拷贝_3">
	<g>
		<polygon fill-rule="evenodd" clip-rule="evenodd" fill="#2E2B1D" points="0,88.03 211.319,117.359 0,82.937 		"/>
	</g>
</g>
<g id="形状_35_拷贝_6">
	<g>
		<polygon fill-rule="evenodd" clip-rule="evenodd" fill="#2E2B1D" points="0,114.194 272.465,136.866 0,102.268 		"/>
	</g>
</g>
<g id="形状_36_拷贝">
	<g>
		<polygon fill-rule="evenodd" clip-rule="evenodd" fill="#2E2B1D" points="540.072,579.888 556.064,582.886 637.021,478.963 		"/>
	</g>
</g>
</svg>
