<svg xmlns="http://www.w3.org/2000/svg" xmlns:xlink="http://www.w3.org/1999/xlink" preserveAspectRatio="xMidYMid" width="1800" height="1891" viewBox="0 0 1800 1891">
  <defs>
    <style>
      .cls-1, .cls-2, .cls-3, .cls-7 {
        fill: #937f23;
      }

      .cls-2, .cls-3,  .cls-7 {
        fill-rule: evenodd;
      }



      .cls-3 {
        opacity: 0.25;
      }

      .cls-6{
        fill: #2e2b1d;
      }

      .cls-5, .cls-6 {
        font-size: 18px;
      }

      .cls-6 {
        font-family: "Audiowide";
      }

      .cls-7 {
        opacity: 0.15;
      }

      .cls-4{
               fill: none;
               stroke:#2e2b1d;
        }

      .cls-4-hover {
                      fill-rule: nonzero;
          }

                .animated {
                    -webkit-animation-duration: 1s;
                    animation-duration: 1s;
                    -webkit-animation-fill-mode: both;
                    animation-fill-mode: both
                }

                @-webkit-keyframes fadeIn {
                    0% {
                        fill: rgba(0, 0, 0, 0);
                    }

                    100% {
                        fill: #2e2b1d;
                    }
                }

                @keyframes fadeIn {
                    0% {
                        fill: rgba(0, 0, 0, 0);
                    }

                    100% {
                        fill: #2e2b1d;
                    }
                }

                .fadeIn {
                    -webkit-animation-name: fadeIn;
                    animation-name: fadeIn
                }

    </style>
  </defs>
  <circle cx="271" cy="65" r="5" class="cls-1"/>
  <path d="M671.423,49.982 C669.481,49.143 667.135,50.215 666.319,52.105 L658.390,70.466 C657.573,72.356 658.533,74.885 660.476,75.724 L674.247,81.671 C676.189,82.510 678.689,81.475 679.505,79.585 L680.423,79.981 C682.365,80.820 684.865,79.785 685.681,77.895 L691.231,65.042 L692.015,63.228 L688.770,53.086 C688.656,53.037 677.753,48.329 677.753,48.329 C675.811,47.490 673.311,48.525 672.495,50.415 L671.423,49.982 ZM666.652,74.034 C664.710,73.195 663.750,70.666 664.566,68.776 L671.702,52.251 L670.684,51.847 C669.720,51.431 668.559,51.963 668.155,52.898 L660.226,71.259 C659.822,72.194 660.305,73.472 661.269,73.888 L675.040,79.835 C676.003,80.251 677.265,79.727 677.669,78.792 L666.652,74.034 ZM687.965,54.950 L687.965,54.951 C687.194,56.735 686.777,57.701 686.777,57.701 C686.365,58.655 686.456,60.801 687.434,61.224 L690.188,62.413 L687.965,54.950 ZM689.395,64.249 C687.616,63.481 686.641,63.060 686.641,63.060 C684.685,62.215 683.721,59.732 684.545,57.825 C684.545,57.825 685.213,56.238 686.141,54.130 L676.960,50.165 C675.996,49.749 674.735,50.273 674.331,51.208 L666.402,69.569 C665.998,70.505 666.481,71.782 667.445,72.198 L681.216,78.145 C682.179,78.561 683.441,78.037 683.845,77.102 L689.395,64.249 ZM680.440,72.375 L672.177,68.807 C671.670,68.588 671.437,68.000 671.655,67.494 C671.874,66.987 672.462,66.754 672.969,66.973 L681.232,70.541 C681.739,70.760 681.973,71.348 681.754,71.855 C681.535,72.361 680.947,72.594 680.440,72.375 ZM682.420,67.790 L674.158,64.222 C673.651,64.003 673.417,63.414 673.636,62.908 C673.854,62.401 674.443,62.168 674.950,62.387 L683.212,65.955 C683.719,66.174 683.953,66.762 683.734,67.269 C683.515,67.775 682.927,68.009 682.420,67.790 Z" class="cls-2"/>
  <path d="M318.000,736.000 C313.029,736.000 309.000,731.971 309.000,727.000 C309.000,722.029 313.029,718.000 318.000,718.000 C322.970,718.000 327.000,722.029 327.000,727.000 C327.000,731.971 322.970,736.000 318.000,736.000 ZM318.000,719.636 C313.933,719.636 310.636,722.933 310.636,727.000 C310.636,731.067 313.933,734.364 318.000,734.364 C322.067,734.364 325.364,731.067 325.364,727.000 C325.364,722.933 322.067,719.636 318.000,719.636 Z" class="cls-2"/>
  <path d="M1.500,1150.000 C-6.508,1150.000 -13.000,1143.508 -13.000,1135.500 C-13.000,1127.492 -6.508,1121.000 1.500,1121.000 C9.508,1121.000 16.000,1127.492 16.000,1135.500 C16.000,1143.508 9.508,1150.000 1.500,1150.000 ZM1.500,1122.933 C-5.440,1122.933 -11.067,1128.560 -11.067,1135.500 C-11.067,1142.440 -5.440,1148.067 1.500,1148.067 C8.441,1148.067 14.067,1142.440 14.067,1135.500 C14.067,1128.560 8.441,1122.933 1.500,1122.933 Z" class="cls-2"/>
  <path d="M1676.500,1190.000 C1666.835,1190.000 1659.000,1182.165 1659.000,1172.500 C1659.000,1162.835 1666.835,1155.000 1676.500,1155.000 C1686.165,1155.000 1694.000,1162.835 1694.000,1172.500 C1694.000,1182.165 1686.165,1190.000 1676.500,1190.000 ZM1676.493,1157.248 C1668.065,1157.248 1661.233,1164.080 1661.233,1172.507 C1661.233,1180.935 1668.065,1187.767 1676.493,1187.767 C1684.920,1187.767 1691.752,1180.935 1691.752,1172.507 C1691.752,1164.080 1684.920,1157.248 1676.493,1157.248 Z" class="cls-2"/>
  <path d="M379.676,324.246 L377.735,339.004 C377.533,340.407 377.261,340.847 376.149,341.571 L363.823,349.915 C363.119,350.327 361.812,349.748 361.154,349.342 C362.071,348.843 363.231,348.062 363.181,348.087 L375.907,339.648 L377.754,324.491 C377.762,324.467 377.881,323.088 377.968,322.116 C378.641,322.531 379.762,323.512 379.676,324.246 ZM374.237,320.887 L372.296,335.645 C372.094,337.048 371.822,337.488 370.710,338.212 L358.384,346.556 C357.342,347.166 355.843,346.201 355.820,344.972 L356.854,329.655 C356.975,328.319 357.341,327.663 358.440,327.088 L371.673,319.303 C372.697,318.721 374.366,319.791 374.237,320.887 ZM358.682,329.010 L357.742,344.727 L370.000,336.000 L372.315,321.131 L358.682,329.010 ZM358.682,329.010 C358.742,328.960 358.835,328.987 358.682,329.010 ZM381.346,343.007 L383.193,327.850 C383.201,327.826 383.320,326.447 383.407,325.475 C384.081,325.891 385.201,326.871 385.115,327.605 L383.174,342.363 C382.972,343.766 382.700,344.206 381.589,344.930 L369.262,353.274 C368.558,353.686 367.251,353.108 366.593,352.701 C367.510,352.202 368.670,351.421 368.620,351.446 L381.346,343.007 Z" class="cls-2"/>
  <path d="M1641.660,614.000 L1618.000,607.660 L1624.340,584.000 L1648.000,590.340 L1641.660,614.000 ZM1619.485,606.803 L1640.803,612.515 L1646.515,591.197 L1625.197,585.485 L1619.485,606.803 Z" class="cls-2"/>
  <path d="M1414.784,1580.837 L1390.285,1546.663 L1424.458,1522.163 L1448.958,1556.337 L1414.784,1580.837 ZM1423.980,1525.068 L1393.189,1547.142 L1415.263,1577.932 L1446.053,1555.858 L1423.980,1525.068 Z" class="cls-2"/>
  <path d="M207.889,1434.000 L191.000,1406.889 L218.111,1390.000 L235.000,1417.111 L207.889,1434.000 ZM217.544,1392.440 L193.440,1407.456 L208.456,1431.560 L232.560,1416.544 L217.544,1392.440 Z" class="cls-2"/>
  <path d="M1393.018,1840.000 C1657.818,1840.000 1849.446,1798.963 2003.657,1765.938 C2056.514,1754.618 2106.439,1743.928 2153.000,1736.290 L2152.838,1735.303 C2106.253,1742.944 2056.316,1753.638 2003.448,1764.960 C1851.046,1797.597 1659.860,1838.533 1393.748,1838.533 C1124.432,1838.533 778.375,1796.632 317.857,1661.797 C317.391,1661.644 269.005,1645.984 200.225,1642.273 C159.832,1640.092 120.402,1642.398 83.036,1649.126 C36.322,1657.536 -7.281,1672.919 -46.561,1694.849 L-46.074,1695.722 C42.670,1646.177 136.817,1639.850 200.172,1643.272 C268.820,1646.976 317.082,1662.595 317.560,1662.752 C532.278,1725.620 736.112,1772.268 923.417,1801.407 C1088.044,1827.018 1239.634,1839.639 1386.847,1839.993 C1388.909,1839.998 1390.966,1840.000 1393.018,1840.000 Z" class="cls-3"/>
  <path d="M1304.111,156.768 L1273.735,175.724 C1273.525,177.570 1272.757,179.764 1270.524,181.198 C1267.984,182.828 1257.838,185.625 1252.067,175.368 C1252.067,175.368 1255.734,176.363 1257.857,173.490 C1261.050,167.878 1265.558,167.745 1268.621,168.507 L1299.340,149.336 C1301.409,148.045 1304.154,148.662 1305.471,150.714 C1306.789,152.766 1306.180,155.476 1304.111,156.768 ZM1259.961,174.952 C1258.499,176.794 1256.950,177.525 1256.950,177.525 C1260.089,181.265 1267.193,179.732 1268.934,178.720 C1272.013,176.931 1271.106,173.930 1271.090,173.905 L1269.500,171.428 C1269.500,171.428 1263.769,169.156 1259.961,174.952 ZM1273.587,172.347 L1277.333,170.009 L1275.743,167.532 L1271.997,169.869 C1271.997,169.869 1273.441,172.118 1273.587,172.347 ZM1302.974,152.272 C1302.535,151.588 1301.620,151.383 1300.930,151.813 L1278.241,165.973 L1279.831,168.451 L1302.521,154.290 C1303.210,153.860 1303.413,152.956 1302.974,152.272 Z" class="cls-2"/>
  <path d="M1210.661,312.001 L1186.999,305.661 L1193.339,281.999 L1217.001,288.339 L1210.661,312.001 ZM1190.242,303.788 L1208.788,308.758 L1213.757,290.212 L1195.212,285.242 L1190.242,303.788 Z" class="cls-2"/>
  <path d="M929.714,287.000 L950.337,287.000 L953.000,293.436 L923.245,293.436 L929.714,287.000 ZM928.962,313.506 L928.962,320.254 L922.494,313.817 L922.494,294.493 L928.962,294.493 L928.962,313.506 ZM905.420,310.078 L905.096,309.616 L904.772,309.154 L901.527,304.529 L908.756,304.529 L920.316,321.000 L913.075,320.989 L905.420,310.078 ZM905.420,297.922 L913.075,287.011 L920.316,287.000 L909.035,303.074 L905.420,297.922 ZM901.527,303.471 L900.879,303.471 L900.789,303.471 L900.510,303.074 L889.229,287.000 L896.470,287.011 L904.124,297.922 L904.448,298.384 L904.772,298.846 L908.017,303.471 L901.527,303.471 ZM879.083,297.300 L885.552,290.864 L885.552,320.933 L879.083,320.933 L879.083,297.300 ZM878.552,296.333 L878.021,296.862 L871.601,303.250 L867.027,298.699 L878.021,287.760 L878.552,287.231 L878.699,287.085 L879.083,287.245 L885.147,289.770 L879.083,295.805 L878.552,296.333 ZM862.231,303.471 L861.480,303.471 L861.173,303.471 L860.951,303.250 L854.531,296.862 L854.531,287.760 L865.524,298.699 L865.900,299.073 L866.276,299.447 L870.320,303.471 L862.231,303.471 ZM847.000,290.864 L847.000,290.116 L847.000,289.939 L852.059,287.831 L853.468,287.245 L853.468,295.805 L853.468,296.552 L853.468,297.300 L853.468,320.933 L847.000,320.933 L847.000,290.864 ZM904.124,310.078 L896.470,320.989 L889.229,321.000 L900.510,304.926 L904.124,310.078 ZM953.000,314.564 L950.337,321.000 L930.027,321.000 L930.025,321.000 L930.025,314.564 L930.035,314.564 L953.000,314.564 Z" class="cls-6"/>
  <g>
    <text x="771" y="247" class="cls-5"><tspan class="cls-6">INNOVATION ENGINE</tspan></text>
    <g>
      <path d="M660.000,146.097 L661.908,160.092 C661.908,160.092 701.200,150.540 730.022,115.019 C730.022,115.019 747.660,120.884 773.908,122.653 L775.816,108.021 C775.816,108.021 745.713,101.348 735.746,85.120 L736.382,80.667 L716.029,78.758 C716.029,78.758 707.831,111.946 660.000,146.097 Z" class="cls-4"/>
      <path d="M700.764,134.103 C700.764,134.103 696.429,202.500 711.576,223.164 L738.290,217.438 C738.290,217.438 743.478,207.296 752.283,198.354 L753.555,178.633 C753.555,178.633 733.977,185.656 724.933,202.807 C724.933,202.807 719.890,183.231 721.117,150.643 C721.117,150.643 728.984,147.341 742.106,145.554 C742.106,145.554 742.323,149.784 742.106,153.824 C742.106,153.824 732.621,155.864 728.113,159.549 C728.394,167.015 729.386,177.361 729.386,177.361 C729.386,177.361 742.034,171.905 754.191,167.819 C754.191,167.819 757.418,159.127 758.643,124.561 C758.643,124.561 731.685,124.568 700.764,134.103 Z" class="cls-4"/>
      <path d="M765.267,126.990 L780.749,128.465 C780.749,128.465 776.527,172.008 772.943,192.264 L757.847,194.626 C757.847,194.626 763.106,160.109 765.267,126.990 Z" class="cls-4"/>
      <path d="M786.994,94.419 L808.862,99.664 C808.862,99.664 800.493,190.781 791.717,210.441 L773.654,213.391 C773.654,213.391 783.620,175.545 786.994,94.419 Z" class="cls-4"/>
    </g>
    <g>
      <path d="M872.161,112.232 C872.161,112.232 905.229,110.523 914.574,92.214 L927.919,99.433 C927.919,99.433 919.786,122.180 895.149,128.246 L894.925,133.370 L917.748,131.527 L910.497,199.839 L891.270,200.112 L896.409,151.758 C896.409,151.758 892.449,149.314 890.754,152.853 L883.560,199.459 L863.272,201.097 L872.161,112.232 Z" class="cls-4"/>
      <path d="M825.493,151.670 L821.533,171.495 L803.632,193.577 L808.893,200.446 L821.435,193.134 L821.053,203.325 L841.352,200.910 L842.371,190.703 L855.214,195.474 L859.538,190.275 L850.766,170.131 L846.125,162.610 L848.367,150.464 L825.493,151.670 Z" class="cls-4"/>
      <path d="M806.067,163.608 L803.888,178.298 C803.888,178.298 835.917,172.553 859.731,172.453 L860.686,159.702 C860.686,159.702 833.670,158.421 806.067,163.608 Z" class="cls-4"/>
      <path d="M809.312,140.619 L807.180,157.217 C807.180,157.217 848.773,151.581 862.419,152.659 L863.978,138.621 C863.978,138.621 817.592,139.242 809.312,140.619 Z" class="cls-4"/>
      <path d="M849.594,123.071 L838.608,141.798 L852.596,141.450 L864.218,122.706 L849.594,123.071 Z" class="cls-4"/>
      <circle cx="825.031" cy="133.234" r="9.531" class="cls-4"/>
      <path d="M838.183,99.174 L836.449,106.217 L812.177,102.367 L810.219,125.961 C810.219,125.961 860.321,123.512 866.793,123.915 L867.732,110.497 L855.588,108.285 L857.226,97.427 L838.183,99.174 Z" class="cls-4"/>
    </g>
    <g>
      <path d="M976.151,96.628 C976.151,96.628 989.621,91.967 1002.661,87.635 C1002.661,87.635 991.463,117.205 988.273,140.362 C988.273,140.362 1004.661,137.349 1007.329,139.425 C1007.329,139.425 991.192,177.660 989.618,190.844 C989.618,190.844 981.526,189.043 977.079,189.005 C977.079,189.005 976.606,171.164 981.311,151.625 C981.311,151.625 973.196,151.870 970.563,152.769 C970.563,152.769 969.363,125.087 976.151,96.628 Z" class="cls-4"/>
      <path d="M981.189,192.941 C986.459,192.941 990.730,197.213 990.730,202.483 C990.730,207.753 986.459,212.025 981.189,212.025 C975.920,212.025 971.649,207.753 971.649,202.483 C971.649,197.213 975.920,192.941 981.189,192.941 Z" class="cls-4"/>
      <path d="M928.465,104.840 C928.465,104.840 952.111,103.358 965.356,101.660 C965.356,101.660 967.506,129.970 962.812,148.098 C962.812,148.098 947.039,149.155 939.914,148.098 L940.550,153.188 C940.550,153.188 952.128,154.979 962.539,153.824 C962.539,153.824 963.803,184.937 957.723,203.638 C957.723,203.638 941.660,202.091 917.653,199.067 L919.561,181.814 C919.561,181.814 938.814,182.646 941.822,184.359 C941.822,184.359 943.480,169.653 942.458,167.183 C942.458,167.183 930.961,166.893 923.377,165.910 L925.921,134.103 C925.921,134.103 939.338,134.686 945.002,133.467 C945.002,133.467 946.350,121.379 945.638,119.472 C945.638,119.472 931.737,121.639 926.557,120.744 L928.465,104.840 Z" class="cls-4"/>
    </g>
    <g>
      <path d="M2177.586,264.995 C2052.612,264.996 1928.308,260.634 1806.537,251.953 C1673.980,242.504 1544.119,227.944 1420.561,208.678 C1210.172,175.872 1089.462,140.307 1088.267,139.951 C754.262,50.516 451.814,51.286 256.911,67.683 C45.723,85.449 -88.190,124.875 -89.518,125.271 L-89.995,124.342 C-88.666,123.945 45.373,84.478 256.719,66.695 C380.841,56.250 506.952,55.215 631.553,63.620 C787.304,74.125 941.118,99.492 1088.722,139.015 C1089.937,139.377 1210.570,174.918 1420.862,207.706 C1614.948,237.967 1927.268,272.003 2312.952,262.293 L2312.995,263.291 C2267.835,264.428 2222.663,264.995 2177.586,264.995 Z" class="cls-3"/>
      <path d="M-30.594,307.996 C-118.752,307.996 -169.033,304.223 -169.983,304.149 L-169.852,303.155 C-168.029,303.298 15.838,317.086 300.490,291.542 C563.202,267.968 967.921,205.113 1404.091,39.549 C1404.956,39.175 1495.445,0.680 1649.204,-22.475 C1739.497,-36.072 1833.631,-41.804 1928.991,-39.501 C2048.186,-36.626 2169.640,-21.128 2289.983,6.561 L2289.610,7.518 C2017.347,-55.128 1791.243,-42.842 1649.511,-21.503 C1495.938,1.617 1405.588,40.047 1404.694,40.433 C1211.988,113.582 1009.313,172.956 802.270,216.919 C636.634,252.090 467.847,277.532 300.597,292.539 C164.030,304.792 50.638,307.996 -30.594,307.996 Z" class="cls-7"/>
      <path d="M548.255,403.731 C283.497,403.731 91.899,362.706 -62.288,329.692 C-115.136,318.375 -165.053,307.688 -211.607,300.052 L-211.446,299.066 C-164.868,306.704 -114.939,317.396 -62.079,328.714 C90.299,361.341 281.455,402.264 547.526,402.264 C816.799,402.264 1162.801,360.376 1623.247,225.582 C1623.712,225.430 1672.091,209.775 1740.860,206.064 C1781.247,203.885 1820.670,206.190 1858.031,212.915 C1904.738,221.323 1948.334,236.702 1987.607,258.624 L1987.121,259.497 C1898.390,209.968 1804.258,203.643 1740.914,207.063 C1672.276,210.766 1624.022,226.380 1623.544,226.538 C1408.859,289.386 1205.057,336.020 1017.782,365.150 C853.181,390.752 701.615,403.370 554.425,403.724 C552.364,403.729 550.307,403.731 548.255,403.731 Z" class="cls-3"/>
      <path d="M1007.517,85.492 C1007.517,85.492 1038.397,85.915 1066.231,78.710 L1066.207,92.782 C1066.207,92.782 1031.837,104.778 1004.489,105.645 L1007.517,85.492 Z" class="cls-4"/>
      <path d="M1018.111,82.193 L1015.803,108.642 L1028.510,106.247 L1031.511,81.401 L1018.111,82.193 Z" class="cls-4"/>
      <path d="M1044.880,79.652 L1042.827,103.163 L1054.123,101.033 L1056.791,78.948 L1044.880,79.652 Z" class="cls-4"/>
      <path d="M1033.277,149.777 C1027.028,149.777 1021.230,148.010 1016.440,144.997 L1023.264,136.621 C1025.855,138.505 1029.038,139.629 1032.493,139.629 C1041.156,139.629 1048.178,132.640 1048.178,124.018 C1048.178,115.397 1041.156,108.407 1032.493,108.407 C1024.276,108.407 1017.546,114.699 1016.874,122.705 L1003.608,125.005 C1003.524,124.166 1003.475,123.317 1003.475,122.457 C1003.475,107.369 1016.818,95.138 1033.277,95.138 C1049.736,95.138 1063.079,107.369 1063.079,122.457 C1063.079,137.545 1049.736,149.777 1033.277,149.777 Z" class="cls-4"/>
      <path d="M1075.517,71.708 C1075.517,71.708 1071.477,95.328 1064.198,100.089 L1077.252,103.380 C1077.252,103.380 1089.743,90.694 1090.271,68.000 L1075.517,71.708 Z" class="cls-4"/>
      <path d="M1082.137,83.112 L1140.000,76.380 L1133.225,94.468 L1076.970,96.909 L1082.137,83.112 Z" class="cls-4"/>
      <path d="M1108.344,93.228 C1108.344,93.228 1099.558,143.404 1068.733,144.015 L1061.696,135.117 C1061.696,135.117 1089.521,128.612 1090.463,92.982 L1108.344,93.228 Z" class="cls-4"/>
      <path d="M1071.905,107.271 L1064.781,118.637 C1064.781,118.637 1071.079,129.932 1112.330,143.811 L1116.001,135.239 C1116.001,135.239 1092.545,126.109 1071.905,107.271 Z" class="cls-4"/>
      <path d="M1036.910,129.650 C1031.114,129.650 1026.415,124.951 1026.415,119.154 C1026.415,113.357 1031.114,108.657 1036.910,108.657 C1042.706,108.657 1047.405,113.357 1047.405,119.154 C1047.405,124.951 1042.706,129.650 1036.910,129.650 ZM1033.534,112.768 C1032.193,112.691 1031.043,113.715 1030.966,115.056 C1030.889,116.397 1031.913,117.547 1033.254,117.624 C1034.595,117.702 1035.745,116.677 1035.822,115.336 C1035.899,113.995 1034.875,112.845 1033.534,112.768 Z" class="cls-4"/>
      <path d="M1022.668,165.488 L1020.142,177.912 C1020.142,177.912 1082.855,178.533 1095.985,168.819 L1094.124,160.317 C1094.124,160.317 1082.098,165.959 1022.668,165.488 Z" class="cls-4"/>
      <path d="M1043.640,154.422 C1043.640,154.422 1049.957,182.630 1043.743,204.749 C1043.743,204.749 1045.255,204.473 1031.341,197.785 L1024.531,207.012 C1024.531,207.012 1033.246,211.836 1044.979,218.819 C1044.979,218.819 1056.961,218.695 1067.184,220.521 C1067.184,220.521 1072.808,168.132 1066.945,151.771 L1043.640,154.422 Z" class="cls-4"/>
      <path d="M1020.324,151.092 L1017.269,163.867 C1017.269,163.867 1086.261,163.910 1099.294,154.331 L1097.960,145.458 C1097.960,145.458 1077.009,153.759 1020.324,151.092 Z" class="cls-4"/>
      <path d="M1007.816,180.024 L1004.388,196.160 C1004.388,196.160 1089.182,196.608 1104.946,184.179 L1103.083,173.077 C1103.083,173.077 1077.508,181.633 1007.816,180.024 Z" class="cls-4"/>
    </g>

  </g>
</svg>
